<svg width="40" height="16" viewBox="0 0 40 16" fill="none" xmlns="http://www.w3.org/2000/svg">
<path d="M0.362305 15.4328V0.887367H2.03844V6.25669H2.18049C2.30359 6.06729 2.47405 5.82581 2.69185 5.53225C2.91439 5.23396 3.23162 4.96881 3.64355 4.7368C4.06022 4.50006 4.62367 4.38169 5.3339 4.38169C6.25246 4.38169 7.06212 4.61133 7.76287 5.07061C8.46363 5.52989 9.01051 6.18093 9.4035 7.02373C9.79649 7.86653 9.99299 8.86085 9.99299 10.0067C9.99299 11.162 9.79649 12.1634 9.4035 13.0109C9.01051 13.8538 8.466 14.5072 7.76998 14.9712C7.07395 15.4305 6.2714 15.6601 5.3623 15.6601C4.66155 15.6601 4.10047 15.5441 3.67907 15.3121C3.25766 15.0753 2.93333 14.8078 2.70605 14.5095C2.47878 14.2065 2.30359 13.9556 2.18049 13.7567H1.98162V15.4328H0.362305ZM2.01003 9.97828C2.01003 10.8021 2.13077 11.5289 2.37225 12.1587C2.61372 12.7837 2.96647 13.2737 3.43049 13.6288C3.8945 13.9792 4.46268 14.1544 5.13503 14.1544C5.83579 14.1544 6.42054 13.9698 6.88929 13.6004C7.36278 13.2264 7.71789 12.7245 7.95463 12.0948C8.19611 11.4603 8.31685 10.7548 8.31685 9.97828C8.31685 9.21123 8.19848 8.51994 7.96174 7.90441C7.72973 7.28415 7.37698 6.79409 6.9035 6.43424C6.43475 6.06966 5.84526 5.88737 5.13503 5.88737C4.45321 5.88737 3.8803 6.06019 3.41628 6.40583C2.95227 6.74674 2.60189 7.22496 2.36515 7.84049C2.1284 8.45129 2.01003 9.16388 2.01003 9.97828Z" fill="#7D22FF"/>
<path d="M15.3308 15.6601C14.2796 15.6601 13.3729 15.4281 12.6106 14.9641C11.853 14.4953 11.2683 13.8419 10.8563 13.0038C10.4491 12.161 10.2455 11.1809 10.2455 10.0635C10.2455 8.94608 10.4491 7.96123 10.8563 7.10896C11.2683 6.25195 11.8412 5.58434 12.5751 5.10612C13.3137 4.62316 14.1755 4.38169 15.1603 4.38169C15.7285 4.38169 16.2896 4.47638 16.8436 4.66578C17.3975 4.85517 17.9018 5.16294 18.3563 5.58907C18.8109 6.01047 19.1731 6.56919 19.443 7.26521C19.7129 7.96123 19.8478 8.81824 19.8478 9.83623V10.5465H11.4387V9.0976H18.1433C18.1433 8.48206 18.0202 7.93282 17.774 7.44987C17.5325 6.96691 17.1868 6.58576 16.737 6.3064C16.2919 6.02705 15.7664 5.88737 15.1603 5.88737C14.4927 5.88737 13.9151 6.05309 13.4274 6.38453C12.9444 6.71123 12.5727 7.13737 12.3123 7.66294C12.0519 8.1885 11.9217 8.75195 11.9217 9.35328V10.3192C11.9217 11.1431 12.0637 11.8414 12.3478 12.4144C12.6366 12.9825 13.0367 13.4158 13.5481 13.7141C14.0595 14.0076 14.6537 14.1544 15.3308 14.1544C15.7711 14.1544 16.1688 14.0929 16.524 13.9698C16.8838 13.8419 17.1939 13.6525 17.4543 13.4016C17.7148 13.1459 17.916 12.8287 18.058 12.4499L19.6774 12.9044C19.5069 13.4537 19.2204 13.9366 18.818 14.3533C18.4155 14.7652 17.9184 15.0872 17.3265 15.3192C16.7347 15.5465 16.0694 15.6601 15.3308 15.6601Z" fill="#7D22FF"/>
<path d="M25.3419 4.52373V5.94419H19.6884V4.52373H25.3419ZM21.3362 1.91009H23.0123V12.3078C23.0123 12.7813 23.081 13.1364 23.2183 13.3732C23.3603 13.6052 23.5402 13.7614 23.758 13.8419C23.9806 13.9177 24.215 13.9555 24.4612 13.9555C24.6458 13.9555 24.7973 13.9461 24.9157 13.9271C25.0341 13.9035 25.1288 13.8845 25.1998 13.8703L25.5407 15.376C25.4271 15.4186 25.2685 15.4612 25.0649 15.5038C24.8613 15.5512 24.6032 15.5749 24.2907 15.5749C23.8172 15.5749 23.3532 15.4731 22.8987 15.2695C22.4489 15.0659 22.0748 14.7557 21.7765 14.3391C21.4829 13.9224 21.3362 13.3968 21.3362 12.7624V1.91009Z" fill="#7D22FF"/>
<path d="M29.2734 15.6885C28.5821 15.6885 27.9547 15.5583 27.3913 15.2979C26.8278 15.0327 26.3804 14.6516 26.049 14.1544C25.7175 13.6525 25.5518 13.0465 25.5518 12.3362C25.5518 11.7112 25.6749 11.2046 25.9211 10.8163C26.1673 10.4234 26.4964 10.1156 26.9083 9.89305C27.3203 9.67051 27.7748 9.50479 28.272 9.39589C28.7739 9.28225 29.2781 9.19229 29.7847 9.126C30.4476 9.04078 30.985 8.97686 31.397 8.93424C31.8136 8.88689 32.1167 8.80877 32.3061 8.69987C32.5002 8.59097 32.5972 8.40157 32.5972 8.13169V8.07487C32.5972 7.37411 32.4055 6.8296 32.022 6.44134C31.6432 6.05309 31.0679 5.85896 30.2961 5.85896C29.4959 5.85896 28.8686 6.03415 28.414 6.38453C27.9595 6.73491 27.6399 7.10896 27.4552 7.50669L25.8643 6.9385C26.1484 6.27562 26.5272 5.75953 27.0007 5.39021C27.4789 5.01615 27.9997 4.75574 28.5632 4.60896C29.1313 4.45744 29.6901 4.38169 30.2393 4.38169C30.5897 4.38169 30.9921 4.4243 31.4467 4.50953C31.906 4.59002 32.3487 4.75811 32.7748 5.01379C33.2057 5.26947 33.5632 5.65536 33.8472 6.17146C34.1313 6.68756 34.2734 7.37884 34.2734 8.24532V15.4328H32.5972V13.9555H32.512C32.3984 14.1923 32.209 14.4456 31.9438 14.7155C31.6787 14.9854 31.3259 15.215 30.8856 15.4044C30.4453 15.5938 29.9079 15.6885 29.2734 15.6885ZM29.5291 14.1828C30.1919 14.1828 30.7507 14.0526 31.2052 13.7922C31.6645 13.5318 32.0101 13.1956 32.2421 12.7837C32.4789 12.3717 32.5972 11.9385 32.5972 11.484V9.94987C32.5262 10.0351 32.37 10.1132 32.1285 10.1842C31.8918 10.2505 31.6171 10.3097 31.3046 10.3618C30.9969 10.4091 30.6962 10.4518 30.4026 10.4896C30.1138 10.5228 29.8794 10.5512 29.6995 10.5749C29.2639 10.6317 28.8567 10.724 28.4779 10.8519C28.1039 10.975 27.8008 11.162 27.5688 11.4129C27.3416 11.6591 27.2279 11.9953 27.2279 12.4215C27.2279 13.0038 27.4434 13.4442 27.8742 13.7425C28.3098 14.036 28.8615 14.1828 29.5291 14.1828Z" fill="#7D22FF"/>
<path d="M35.8281 4.84319V2.24306H36.7067C36.9098 2.24306 37.0766 2.27776 37.2069 2.34716C37.3373 2.41572 37.4337 2.5101 37.4964 2.63028C37.559 2.75047 37.5903 2.88717 37.5903 3.04036C37.5903 3.19356 37.559 3.32941 37.4964 3.44791C37.4337 3.5664 37.3377 3.65951 37.2082 3.72722C37.0787 3.79408 36.9132 3.82752 36.7118 3.82752H36.0008V3.54313H36.7016C36.8404 3.54313 36.9521 3.52281 37.0368 3.48218C37.1223 3.44156 37.1841 3.384 37.2221 3.30952C37.2611 3.23419 37.2805 3.14447 37.2805 3.04036C37.2805 2.93626 37.2611 2.84527 37.2221 2.7674C37.1832 2.68953 37.121 2.62944 37.0355 2.58712C36.95 2.54395 36.837 2.52237 36.6965 2.52237H36.143V4.84319H35.8281ZM37.052 3.67516L37.6919 4.84319H37.3263L36.6965 3.67516H37.052Z" fill="#7D22FF"/>
<path d="M38.9621 3.54312C38.9621 4.8471 37.905 5.90418 36.601 5.90418C35.297 5.90418 34.2399 4.8471 34.2399 3.54312C34.2399 2.23915 35.297 1.18206 36.601 1.18206C37.905 1.18206 38.9621 2.23915 38.9621 3.54312Z" stroke="#7D22FF" stroke-width="0.35"/>
</svg>
