<svg width="88" height="33" viewBox="0 0 88 33" fill="none" xmlns="http://www.w3.org/2000/svg">
<g clip-path="url(#clip0_368_318)">
<path d="M46.3604 15.6144C40.5243 15.6144 34.6782 15.6144 28.8421 15.6144C25.3265 15.6144 22.2391 13.1802 21.7013 9.77631C21.4623 8.29205 21.532 6.67916 21.8507 5.21469C22.5279 2.04827 25.7946 -1.08872e-06 29.0214 -1.08872e-06C40.5343 -1.08872e-06 52.0472 -0.0197912 63.5601 -1.08872e-06C68.0417 0.00989396 71.0295 3.09715 71.0494 7.56971C71.0494 8.98471 70.9598 10.37 70.2826 11.6366C68.9082 14.1994 66.7371 15.5649 63.819 15.5847C58.0028 15.6243 52.1866 15.5946 46.3704 15.5946L46.3604 15.6144ZM46.3206 5.24438C45.0856 5.24438 43.8407 5.24438 42.6058 5.24438C38.0743 5.24438 33.5528 5.24438 29.0214 5.24438C28.1748 5.24438 27.5275 5.53133 27.1291 6.27346C26.0037 8.35142 27.2088 10.4195 29.5293 10.4195C40.6836 10.4195 51.8281 10.4195 62.9824 10.4195C63.341 10.4195 63.6995 10.4195 64.0481 10.3799C64.9842 10.2909 65.6814 9.5982 65.7611 8.67796C65.7909 8.32174 65.781 7.96552 65.781 7.60929C65.781 5.92714 65.0938 5.25427 63.3908 5.25427C57.6941 5.25427 51.9974 5.25427 46.3106 5.25427L46.3206 5.24438Z" fill="#E6E0DD"/>
<path d="M59.7953 23.0951C57.8234 23.0951 55.951 23.0951 54.0687 23.0951C53.9492 23.0951 53.7799 23.006 53.7102 22.9169C53.1425 22.1847 52.3259 21.8582 51.4694 21.8285C50.1946 21.7889 48.9099 21.8879 47.6251 21.9472C47.396 21.9571 47.1271 22.0363 46.9578 22.1847C46.679 22.4321 46.4599 22.7487 46.2109 23.0456C46.5196 23.2237 46.8084 23.5403 47.1271 23.57C48.9995 23.7481 50.8818 23.8075 52.7541 24.0252C54.2779 24.2132 55.8116 24.4705 57.2955 24.8861C58.5604 25.2324 59.5862 26.024 59.7654 27.4588C59.9547 29.0123 59.4567 30.3877 58.0823 31.1991C57.0565 31.8027 55.8913 32.3073 54.7261 32.4954C51.1806 33.0891 47.6151 33.1286 44.0896 32.2876C41.8587 31.7532 40.315 30.0117 40.2353 27.8447C41.3707 27.8447 42.516 27.8447 43.6514 27.8447C44.3186 27.8447 44.9859 27.8348 45.6532 27.8447C45.8524 27.8447 46.1412 27.8645 46.2408 27.9931C47.1271 29.0816 48.382 29.1805 49.617 29.2102C50.5332 29.2399 51.4694 29.0915 52.3856 28.9628C52.7442 28.9133 53.1127 28.7253 53.4114 28.5076C53.5907 28.379 53.7401 28.0723 53.7202 27.8546C53.7102 27.7061 53.4114 27.4885 53.2222 27.4489C52.4753 27.3103 51.7184 27.2213 50.9615 27.152C48.8103 26.9442 46.6391 26.7859 44.4979 26.5385C43.7808 26.4594 43.0538 26.2219 42.3766 25.9349C39.9366 24.9157 39.3988 22.2243 41.2113 20.2948C41.9882 19.4735 42.9642 18.9985 44.0398 18.7115C46.8383 17.9694 49.6966 17.8804 52.5549 18.1376C53.9393 18.2663 55.3535 18.4939 56.6681 18.9391C58.5405 19.5625 59.5463 21.0072 59.7953 23.1049V23.0951Z" fill="#E6E0DD"/>
<path d="M87.9801 23.0654C87.6415 23.0852 87.3925 23.105 87.1336 23.105C85.9185 23.105 84.7035 23.105 83.4885 23.105C82.7017 23.105 81.9647 23.1643 81.3672 22.442C81.0883 22.1056 80.4808 21.9077 80.0127 21.8879C78.6383 21.8285 77.264 21.8879 75.8896 21.9175C75.6406 21.9175 75.3418 22.0066 75.1526 22.1649C74.8638 22.4024 74.6447 22.7289 74.3957 23.0258C74.7044 23.2039 74.9932 23.5205 75.3119 23.5502C77.2042 23.7382 79.1164 23.7877 81.0086 24.0153C82.5125 24.1934 84.0263 24.4606 85.4803 24.8663C86.7352 25.2126 87.7809 25.9844 87.9502 27.4192C88.1395 29.0321 87.5618 30.3481 86.1875 31.2684C84.6936 32.2678 82.9706 32.5547 81.2377 32.7131C78.3595 32.9802 75.4813 33.0198 72.6429 32.3667C70.3722 31.8423 68.7886 30.5658 68.4102 28.1316C68.4002 28.0624 68.4102 27.9931 68.4201 27.815C68.6492 27.815 68.8783 27.815 69.1073 27.815C70.3224 27.815 71.5374 27.815 72.7524 27.815C73.589 27.815 74.3459 27.7952 75.1028 28.478C75.6705 28.9826 76.6764 29.0618 77.5129 29.1607C78.7977 29.2993 80.0924 29.2399 81.2875 28.6759C81.5664 28.5472 81.7257 28.1811 81.9448 27.9238C81.6759 27.7358 81.4269 27.3994 81.1381 27.3697C79.6044 27.2015 78.0507 27.1322 76.517 26.9739C75.0032 26.8156 73.4894 26.6276 71.9855 26.3901C71.4278 26.3011 70.8801 26.0834 70.3722 25.836C68.0815 24.7475 67.6334 22.1352 69.3862 20.2849C70.3821 19.236 71.6669 18.7116 73.0313 18.4741C76.7959 17.8111 80.5704 17.722 84.2952 18.7017C86.1675 19.1964 87.4025 20.3838 87.8506 22.3035C87.9004 22.5211 87.9204 22.7586 87.9602 23.0456L87.9801 23.0654Z" fill="#E6E0DD"/>
<path d="M9.86963 33C7.86781 32.8813 5.90584 32.6735 4.02354 31.9907C1.89226 31.209 0.448168 29.7643 0.139431 27.4984C-0.039836 26.1823 -0.0497953 24.797 0.139431 23.481C0.458127 21.0963 1.95202 19.5922 4.23269 18.8699C7.87777 17.7121 11.5627 17.6924 15.2078 18.761C18.1856 19.6219 19.6596 21.6702 19.7094 24.7574C19.7293 25.9052 19.6994 27.1026 19.4006 28.2009C18.7234 30.6945 16.7714 31.8918 14.3812 32.4063C12.8972 32.7229 11.3735 32.8219 9.85967 33.0198L9.86963 33ZM10.1584 28.4087C10.9651 28.2603 11.6324 28.2009 12.2598 28.0129C13.4749 27.6567 13.9828 26.8651 13.9928 25.4897C13.9928 24.0648 13.5048 23.2435 12.2698 22.8873C10.6863 22.4222 9.07288 22.4123 7.48936 22.8774C6.1847 23.2534 5.68674 24.0747 5.72657 25.5886C5.75645 26.9442 6.34405 27.7754 7.61883 28.0723C8.49525 28.2702 9.40154 28.3196 10.1584 28.4186V28.4087Z" fill="#E6E0DD"/>
<path d="M19.6596 6.54063C17.7773 6.54063 15.9448 6.54063 14.1222 6.53074C13.9729 6.53074 13.7737 6.38231 13.694 6.24378C13.2857 5.56102 12.6483 5.21469 11.9013 5.05637C10.4572 4.73973 9.01315 4.73973 7.58897 5.12564C6.24447 5.49175 5.73655 6.27346 5.74651 7.85667C5.74651 9.22219 6.32415 10.0237 7.60889 10.3601C9.06294 10.7361 10.5469 10.8153 11.981 10.3601C12.5985 10.1721 13.0964 9.63778 13.6542 9.26177C13.8036 9.16282 13.933 8.94513 14.0725 8.94513C15.9249 8.92534 17.7773 8.93523 19.6895 8.93523C19.57 10.7559 18.9126 12.2105 17.5084 13.299C16.0245 14.4567 14.2517 14.8426 12.4491 15.0306C9.73021 15.3076 7.03126 15.2483 4.39205 14.3973C1.93212 13.5859 0.368513 12.0225 0.0896534 9.44978C-0.0497762 8.14363 -0.0298576 6.78801 0.169328 5.50165C0.507942 3.41379 1.84248 1.97901 3.81442 1.28636C7.67861 -0.0692652 11.6225 -0.0989504 15.5265 1.13793C18.1059 1.95922 19.5799 3.96792 19.6596 6.54063Z" fill="#E6E0DD"/>
<path d="M40.6835 32.5349C40.1756 32.5349 39.7573 32.5349 39.339 32.5349C37.9546 32.5349 36.5703 32.4954 35.1959 32.5547C34.5386 32.5844 34.0805 32.3271 33.9411 31.7631C33.5726 30.2789 32.6264 29.9622 31.2122 30.0909C29.7482 30.2195 28.2543 30.1403 26.7804 30.1106C26.3123 30.1106 25.9836 30.1898 25.8641 30.6747C25.4956 32.2975 24.4698 32.7625 22.8564 32.5646C21.5418 32.4063 20.1873 32.525 18.8528 32.525C18.803 32.525 18.7632 32.5053 18.6138 32.4657C18.7233 32.2282 18.8229 32.0105 18.9325 31.7928C20.506 28.8738 22.0696 25.9448 23.6631 23.0357C24.4399 21.6108 25.2666 20.1958 26.1131 18.8105C26.2525 18.5829 26.621 18.385 26.8899 18.3751C28.7224 18.3355 30.5649 18.3355 32.3974 18.3751C32.6663 18.3751 33.0447 18.5928 33.1642 18.8105C35.6142 23.194 38.0244 27.5874 40.4445 31.9808C40.5241 32.1193 40.5739 32.2678 40.6835 32.525V32.5349ZM31.521 26.6177C30.8836 25.2522 30.3059 24.0054 29.6486 22.6003C28.9913 24.0054 28.3938 25.272 27.7564 26.6177H31.521Z" fill="#E6E0DD"/>
<path d="M66.8864 32.4953H61.2395V18.4345H66.8864V32.4953Z" fill="#E6E0DD"/>
</g>
<defs>
<clipPath id="clip0_368_318">
<rect width="88" height="33" fill="white"/>
</clipPath>
</defs>
</svg>
