<svg width="127" height="47" viewBox="0 0 127 47" fill="none" xmlns="http://www.w3.org/2000/svg">
<g clip-path="url(#clip0_405_934)">
<path d="M32.6695 46.575H28.168V44.2935H32.6695C40.5366 44.2935 46.9453 37.7771 46.9453 29.7777V17.3865C46.9453 9.3871 40.5366 2.87067 32.6695 2.87067H28.168V0.574951H32.6695C41.7847 0.574951 49.189 8.10378 49.189 17.3722V29.7634C49.189 39.0319 41.7847 46.5607 32.6695 46.5607V46.575Z" fill="black"/>
<path d="M29.3037 46.5749H27.0599V45.4342C27.0599 41.3275 26.0503 37.6059 24.0449 34.3976L25.3491 32.2159L25.9521 33.1856C28.1818 36.7789 29.3037 40.8998 29.3037 45.4484V46.5892V46.5749Z" fill="black"/>
<path d="M21.9269 31.5173L21.1275 30.7188C16.7382 26.2842 11.4093 24.6872 11.3532 24.6729L11.3252 22.4913C16.8644 20.7089 21.0574 17.4293 23.792 12.738L24.3669 11.7542L25.7272 13.9073C23.1749 18.2563 19.5148 21.5074 14.803 23.6035C16.9345 24.6016 19.9496 26.3413 22.6982 29.1075L23.203 29.6209C22.6561 30.1627 22.2214 30.8044 21.9128 31.5173H21.9269Z" fill="black"/>
<path d="M27.5788 10.0145C26.9057 9.25877 26.4289 8.34619 26.1905 7.34805L26.1484 7.17694C27.0319 4.06844 27.0459 1.7442 27.0459 1.71568V0.574951H29.2897V1.71568C29.2897 1.8155 29.2897 4.36788 28.308 7.80434L27.5788 10.0145Z" fill="black"/>
<path d="M21.6187 46.575H17.1172C8.002 46.575 0.597656 39.0461 0.597656 29.7777V17.3865C0.597656 8.10378 8.002 0.574951 17.1172 0.574951H21.6187V2.85641H17.1172C9.25008 2.85641 2.8414 9.37284 2.8414 17.3722V29.7634C2.8414 37.7628 9.25008 44.2792 17.1172 44.2792H21.6187V46.5607V46.575Z" fill="black"/>
<path d="M22.7408 46.575H20.4971V45.4342C20.4971 45.3201 20.4971 42.7107 21.5208 39.203C22.1378 37.0784 22.9932 35.0821 24.059 33.2569C26.6113 28.9079 30.2714 25.6568 34.9832 23.5607C33.3846 22.805 31.281 21.65 29.1775 19.9389C25.2229 16.7448 20.4971 10.9841 20.4971 1.71568V0.574951H22.7408V1.71568C22.7408 8.41748 25.3772 13.95 30.5659 18.1422C34.4784 21.2935 38.3909 22.4627 38.433 22.4627L38.461 24.6444C32.9218 26.4268 28.7288 29.7064 25.9942 34.3976C25.0266 36.066 24.2413 37.8911 23.6804 39.8304C22.7689 42.9959 22.7408 45.3914 22.7408 45.42V46.5607V46.575Z" fill="black"/>
<path d="M72.8039 16.6878C72.6777 17.8 72.285 18.7553 71.64 19.5539C70.9949 20.3381 70.1114 20.9513 69.0036 21.3648C67.8957 21.7783 66.5635 21.9922 65.035 21.9922C63.7448 21.9922 62.5809 21.8353 61.5151 21.5359C60.4493 21.2364 59.5378 20.7801 58.7665 20.1813C57.9952 19.5824 57.4062 18.8266 56.9855 17.9283C56.5648 17.03 56.3545 15.9891 56.3545 14.777C56.3545 13.565 56.5648 12.5241 56.9855 11.6115C57.4062 10.6989 58.0093 9.95746 58.7665 9.34431C59.5378 8.73117 60.4493 8.27488 61.5151 7.96118C62.5809 7.64747 63.7588 7.50488 65.035 7.50488C66.5775 7.50488 67.8957 7.71877 69.0176 8.14654C70.1395 8.57432 71.0229 9.18746 71.668 9.98597C72.3131 10.7845 72.6917 11.7398 72.8039 12.8806H70.0133C69.831 12.2817 69.5224 11.7541 69.0877 11.3263C68.653 10.8843 68.1061 10.5563 67.433 10.3282C66.7598 10.1 65.9465 9.98597 65.0209 9.98597C63.857 9.98597 62.8473 10.1713 61.9779 10.5278C61.1084 10.8986 60.4213 11.4261 59.9445 12.1391C59.4677 12.8521 59.2293 13.7219 59.2293 14.777C59.2293 15.8322 59.4677 16.6735 59.9445 17.3865C60.4213 18.0994 61.0944 18.627 61.9779 18.9835C62.8473 19.3542 63.871 19.5253 65.0209 19.5253C65.9465 19.5253 66.7458 19.4113 67.4189 19.1831C68.0921 18.955 68.639 18.627 69.0737 18.1992C69.5084 17.7715 69.8169 17.2724 70.0133 16.6878H72.8039Z" fill="black"/>
<path d="M83.6856 21.9779C81.8626 21.9779 80.306 21.6928 79.0158 21.1081C77.7257 20.5235 76.7441 19.6965 76.0569 18.627C75.3698 17.5576 75.0332 16.26 75.0332 14.7628C75.0332 13.2656 75.3698 11.9395 76.0569 10.8701C76.7441 9.80063 77.7257 8.9736 79.0158 8.38897C80.306 7.80435 81.8626 7.51917 83.6856 7.51917V9.986C82.5778 9.986 81.5821 10.1571 80.6986 10.5136C79.8292 10.8701 79.142 11.3977 78.6512 12.0964C78.1604 12.795 77.908 13.6934 77.908 14.7628C77.908 15.8322 78.1604 16.7306 78.6512 17.4293C79.142 18.128 79.8292 18.6556 80.6986 18.9978C81.5681 19.34 82.5638 19.5111 83.6856 19.5111V21.9779Z" fill="black"/>
<path d="M102.112 7.50488C103.935 7.50488 105.492 7.79007 106.782 8.37469C108.072 8.95932 109.054 9.78635 109.741 10.8558C110.428 11.9252 110.765 13.2228 110.765 14.72C110.765 16.2172 110.428 17.5433 109.741 18.6128C109.054 19.6822 108.072 20.5092 106.782 21.0938C105.492 21.6785 103.935 21.9637 102.112 21.9637V19.4968C103.22 19.4968 104.216 19.3257 105.099 18.9692C105.969 18.6128 106.656 18.0852 107.147 17.3865C107.638 16.6878 107.89 15.7894 107.89 14.72C107.89 13.6506 107.638 12.7522 107.147 12.0536C106.656 11.3549 105.969 10.8273 105.099 10.485C104.23 10.1428 103.234 9.97171 102.112 9.97171V7.50488Z" fill="black"/>
<path d="M64.9786 39.0889C63.1556 39.0889 61.599 38.8037 60.3088 38.2191C59.0187 37.6345 58.037 36.8074 57.3499 35.738C56.6627 34.6686 56.3262 33.371 56.3262 31.8738C56.3262 30.3766 56.6627 29.0505 57.3499 27.981C58.037 26.9116 59.0187 26.0846 60.3088 25.4999C61.599 24.9153 63.1556 24.6301 64.9786 24.6301C66.8016 24.6301 68.3722 24.9153 69.6484 25.4999C70.9245 26.0846 71.9202 26.9116 72.5933 27.981C73.2664 29.0505 73.617 30.348 73.617 31.8738C73.617 33.3995 73.2804 34.6686 72.5933 35.738C71.9061 36.8074 70.9245 37.6345 69.6484 38.2191C68.3722 38.8037 66.8016 39.0889 64.9786 39.0889ZM64.9786 36.6078C66.1005 36.6078 67.0961 36.4367 67.9515 36.0945C68.807 35.7523 69.4801 35.2247 69.9569 34.526C70.4337 33.8273 70.6861 32.9289 70.6861 31.8595C70.6861 30.7901 70.4477 29.8917 69.9569 29.1931C69.4661 28.4944 68.7929 27.9668 67.9515 27.6103C67.0961 27.2538 66.1005 27.0827 64.9786 27.0827C63.8567 27.0827 62.8751 27.2538 61.9916 27.6103C61.1222 27.9668 60.435 28.4944 59.9442 29.1931C59.4534 29.8917 59.201 30.7901 59.201 31.8595C59.201 32.9289 59.4534 33.8273 59.9442 34.526C60.435 35.2247 61.1222 35.7523 61.9916 36.0945C62.8611 36.4367 63.8567 36.6078 64.9786 36.6078Z" fill="black"/>
<path d="M75.1039 38.8036L81.5266 24.8867H84.5696L91.0625 38.8036H87.9913L82.368 26.2699H83.7142L78.1329 38.8036H75.0898H75.1039ZM78.5115 35.7664V33.3852H87.5706V35.7664H78.5115Z" fill="black"/>
<path d="M91.9591 34.1124H94.8199C94.876 34.5972 95.1003 35.0393 95.479 35.4385C95.8716 35.8378 96.3765 36.1372 97.0075 36.3654C97.6386 36.5935 98.3537 36.6933 99.1391 36.6933C99.8542 36.6933 100.443 36.6078 100.92 36.4509C101.383 36.2941 101.733 36.0659 101.958 35.7807C102.182 35.4956 102.294 35.1533 102.294 34.7541C102.294 34.3548 102.154 34.0696 101.874 33.8557C101.593 33.6419 101.144 33.4707 100.541 33.3424C99.9384 33.1998 99.1391 33.0715 98.1574 32.9289C97.3861 32.8148 96.6429 32.658 95.9558 32.4441C95.2686 32.2302 94.6516 31.9735 94.1327 31.6313C93.6138 31.2891 93.1931 30.8898 92.8846 30.4193C92.5761 29.9345 92.4359 29.3641 92.4359 28.7082C92.4359 27.8954 92.6603 27.1682 93.123 26.5551C93.5858 25.9419 94.2589 25.4571 95.1705 25.1149C96.082 24.7727 97.1758 24.6016 98.494 24.6016C100.471 24.6016 101.986 25.0293 103.052 25.8849C104.117 26.7404 104.636 27.9097 104.608 29.4069H101.86C101.804 28.5656 101.453 27.9525 100.808 27.5817C100.163 27.211 99.3634 27.0256 98.3818 27.0256C97.4843 27.0256 96.7411 27.1682 96.1521 27.4391C95.5631 27.7101 95.2686 28.1806 95.2686 28.8365C95.2686 29.0932 95.3387 29.3213 95.479 29.521C95.6192 29.7206 95.8576 29.8774 96.1942 30.02C96.5307 30.1626 96.9935 30.3052 97.5684 30.4336C98.1434 30.5619 98.8586 30.6902 99.728 30.8185C100.527 30.9326 101.257 31.0895 101.916 31.2748C102.575 31.4602 103.136 31.7169 103.613 32.0306C104.089 32.3443 104.454 32.7293 104.706 33.1998C104.959 33.6704 105.085 34.255 105.085 34.9394C105.085 35.7807 104.875 36.5222 104.44 37.1496C104.005 37.777 103.346 38.2618 102.449 38.604C101.551 38.9463 100.401 39.1174 98.9708 39.1174C97.9611 39.1174 97.0636 39.0033 96.2783 38.7894C95.507 38.5613 94.8339 38.2761 94.273 37.8911C93.712 37.5203 93.2492 37.1068 92.8987 36.6648C92.5481 36.2228 92.2957 35.7807 92.1414 35.3244C91.9871 34.8824 91.9311 34.4832 91.9591 34.1267V34.1124Z" fill="black"/>
<path d="M107.946 24.8867H110.765V38.8036H107.946V24.8867Z" fill="black"/>
<path d="M113.485 34.1124H116.346C116.402 34.5972 116.627 35.0393 117.005 35.4385C117.398 35.8378 117.903 36.1372 118.534 36.3654C119.165 36.5935 119.88 36.6933 120.665 36.6933C121.381 36.6933 121.97 36.6078 122.446 36.4509C122.909 36.2941 123.26 36.0659 123.484 35.7807C123.708 35.4956 123.821 35.1533 123.821 34.7541C123.821 34.3548 123.68 34.0696 123.4 33.8557C123.12 33.6419 122.671 33.4707 122.068 33.3424C121.465 33.1998 120.665 33.0715 119.684 32.9289C118.913 32.8148 118.169 32.658 117.482 32.4441C116.795 32.2302 116.178 31.9735 115.659 31.6313C115.14 31.2891 114.72 30.8898 114.411 30.4193C114.102 29.9345 113.962 29.3641 113.962 28.7082C113.962 27.8954 114.187 27.1682 114.649 26.5551C115.112 25.9419 115.785 25.4571 116.697 25.1149C117.608 24.7727 118.702 24.6016 120.02 24.6016C121.998 24.6016 123.512 25.0293 124.578 25.8849C125.644 26.7404 126.163 27.9097 126.135 29.4069H123.386C123.33 28.5656 122.979 27.9525 122.334 27.5817C121.689 27.211 120.89 27.0256 119.908 27.0256C119.011 27.0256 118.267 27.1682 117.678 27.4391C117.089 27.7101 116.795 28.1806 116.795 28.8365C116.795 29.0932 116.865 29.3213 117.005 29.521C117.146 29.7206 117.384 29.8774 117.721 30.02C118.057 30.1626 118.52 30.3052 119.095 30.4336C119.67 30.5619 120.385 30.6902 121.254 30.8185C122.054 30.9326 122.783 31.0895 123.442 31.2748C124.101 31.4602 124.662 31.7169 125.139 32.0306C125.616 32.3443 125.98 32.7293 126.233 33.1998C126.485 33.6704 126.611 34.255 126.611 34.9394C126.611 35.7807 126.401 36.5222 125.966 37.1496C125.532 37.777 124.872 38.2618 123.975 38.604C123.077 38.9463 121.928 39.1174 120.497 39.1174C119.487 39.1174 118.59 39.0033 117.805 38.7894C117.033 38.5613 116.36 38.2761 115.799 37.8911C115.238 37.5203 114.776 37.1068 114.425 36.6648C114.074 36.2228 113.822 35.7807 113.668 35.3244C113.514 34.8824 113.457 34.4832 113.485 34.1267V34.1124Z" fill="black"/>
<path d="M102.337 7.50488H83.4053V9.98597H102.337V7.50488Z" fill="black"/>
<path d="M102.337 19.4968H83.4053V21.9779H102.337V19.4968Z" fill="black"/>
</g>
<defs>
<clipPath id="clip0_405_934">
<rect width="126" height="46" fill="white" transform="translate(0.597656 0.574951)"/>
</clipPath>
</defs>
</svg>
