<svg width="246" height="55" viewBox="0 0 246 55" fill="none" xmlns="http://www.w3.org/2000/svg">
<rect x="0.347656" y="1.03271" width="244.5" height="53.5" rx="11.75" stroke="#030303" stroke-width="0.5"/>
<path d="M61.3755 13.4521H58.1279V14.9419H60.9712V16.0669H58.1279V18.7827H56.7832V12.314H61.3755V13.4521ZM66.7939 15.9526H63.6475V17.6182H67.2334V18.7827H62.3247V12.3052H67.0752V13.4521H63.6475V14.8276H66.7939V15.9526ZM72.0806 17.4512H69.6943L69.2461 18.7827H67.8311L70.1426 12.3052H71.6719L73.9658 18.7827H72.498L72.0806 17.4512ZM71.7026 16.335L70.894 13.7861L70.0591 16.335H71.7026ZM78.8306 12.3052V13.4521H76.8926V18.7827H75.5303V13.4521H73.5835V12.3052H78.8306ZM83.458 16.2866V12.3052H84.8335V16.2866C84.8335 16.9751 84.7266 17.5112 84.5127 17.895C84.1143 18.5981 83.354 18.9497 82.2319 18.9497C81.1099 18.9497 80.3481 18.5981 79.9468 17.895C79.7329 17.5112 79.626 16.9751 79.626 16.2866V12.3052H81.0015V16.2866C81.0015 16.7319 81.0542 17.0571 81.1597 17.2622C81.3237 17.6255 81.6812 17.8071 82.2319 17.8071C82.7798 17.8071 83.1357 17.6255 83.2998 17.2622C83.4053 17.0571 83.458 16.7319 83.458 16.2866ZM88.8809 16.2427H87.4834V18.7827H86.1606V12.3052H89.3379C89.792 12.314 90.1406 12.3696 90.3838 12.4722C90.6299 12.5747 90.8379 12.7256 91.0078 12.9248C91.1484 13.0889 91.2598 13.2705 91.3418 13.4697C91.4238 13.6689 91.4648 13.896 91.4648 14.1509C91.4648 14.4585 91.3872 14.7617 91.2319 15.0605C91.0767 15.3564 90.8203 15.5659 90.4629 15.689C90.7617 15.8091 90.9727 15.9805 91.0957 16.2031C91.2217 16.4229 91.2847 16.7598 91.2847 17.2139V17.6489C91.2847 17.9448 91.2964 18.1455 91.3198 18.251C91.355 18.418 91.437 18.541 91.5659 18.6201V18.7827H90.0762C90.0352 18.6392 90.0059 18.5234 89.9883 18.4355C89.9531 18.2539 89.9341 18.0679 89.9312 17.8774L89.9224 17.2754C89.9165 16.8623 89.8403 16.5869 89.6938 16.4492C89.5503 16.3115 89.2793 16.2427 88.8809 16.2427ZM89.7026 15.0649C89.9722 14.9419 90.1069 14.6987 90.1069 14.3354C90.1069 13.9429 89.9766 13.6792 89.7158 13.5444C89.5693 13.4683 89.3496 13.4302 89.0566 13.4302H87.4834V15.1704H89.0171C89.3218 15.1704 89.5503 15.1353 89.7026 15.0649ZM97.1426 15.9526H93.9961V17.6182H97.582V18.7827H92.6733V12.3052H97.4238V13.4521H93.9961V14.8276H97.1426V15.9526ZM101.427 18.7827H98.6367V12.3052H101.427C101.829 12.311 102.163 12.3579 102.429 12.4458C102.883 12.5952 103.251 12.8691 103.532 13.2676C103.758 13.5898 103.912 13.9385 103.994 14.3135C104.076 14.6885 104.117 15.0459 104.117 15.3857C104.117 16.2471 103.944 16.9766 103.598 17.5742C103.129 18.3799 102.406 18.7827 101.427 18.7827ZM102.434 13.9575C102.226 13.606 101.814 13.4302 101.199 13.4302H99.9507V17.6577H101.199C101.837 17.6577 102.283 17.3428 102.535 16.7129C102.672 16.3672 102.741 15.9556 102.741 15.478C102.741 14.8188 102.639 14.312 102.434 13.9575ZM110.511 18.9629C109.585 18.9629 108.877 18.7109 108.388 18.207C107.732 17.5889 107.404 16.6982 107.404 15.5352C107.404 14.3486 107.732 13.458 108.388 12.8633C108.877 12.3594 109.585 12.1074 110.511 12.1074C111.437 12.1074 112.144 12.3594 112.633 12.8633C113.287 13.458 113.613 14.3486 113.613 15.5352C113.613 16.6982 113.287 17.5889 112.633 18.207C112.144 18.7109 111.437 18.9629 110.511 18.9629ZM111.79 17.2227C112.103 16.8271 112.26 16.2646 112.26 15.5352C112.26 14.8086 112.102 14.2476 111.785 13.8521C111.472 13.4536 111.047 13.2544 110.511 13.2544C109.975 13.2544 109.547 13.4521 109.228 13.8477C108.908 14.2432 108.749 14.8057 108.749 15.5352C108.749 16.2646 108.908 16.8271 109.228 17.2227C109.547 17.6182 109.975 17.8159 110.511 17.8159C111.047 17.8159 111.473 17.6182 111.79 17.2227ZM119.889 18.7827H118.535L115.89 14.1816V18.7827H114.628V12.3052H116.048L118.627 16.8271V12.3052H119.889V18.7827Z" fill="#030303"/>
<path d="M64.1162 34.3481H60.9067V39.7827H57.769V24.6685H64.3521C65.8696 24.6685 67.0796 25.0581 67.9819 25.8374C68.8843 26.6167 69.3354 27.8232 69.3354 29.457C69.3354 31.2412 68.8843 32.5024 67.9819 33.2407C67.0796 33.979 65.791 34.3481 64.1162 34.3481ZM65.5928 31.2002C66.0029 30.8379 66.208 30.2637 66.208 29.4775C66.208 28.6914 65.9995 28.1309 65.5825 27.7959C65.1724 27.4609 64.5947 27.2935 63.8496 27.2935H60.9067V31.7437H63.8496C64.5947 31.7437 65.1758 31.5625 65.5928 31.2002ZM77.0874 31.3027C75.9116 31.3027 75.1221 31.6855 74.7188 32.4512C74.4932 32.8818 74.3804 33.5449 74.3804 34.4404V39.7827H71.4375V28.606H74.2266V30.5542C74.6777 29.8091 75.0708 29.2998 75.4058 29.0264C75.9526 28.5684 76.6636 28.3394 77.5386 28.3394C77.5933 28.3394 77.6377 28.3428 77.6719 28.3496C77.7129 28.3496 77.7983 28.353 77.9282 28.3599V31.354C77.7437 31.3335 77.5796 31.3198 77.436 31.313C77.2925 31.3062 77.1763 31.3027 77.0874 31.3027ZM88.9717 30.021C89.915 31.2036 90.3867 32.6016 90.3867 34.2148C90.3867 35.8555 89.915 37.2603 88.9717 38.4292C88.0283 39.5913 86.5962 40.1724 84.6753 40.1724C82.7544 40.1724 81.3223 39.5913 80.3789 38.4292C79.4355 37.2603 78.9639 35.8555 78.9639 34.2148C78.9639 32.6016 79.4355 31.2036 80.3789 30.021C81.3223 28.8384 82.7544 28.2471 84.6753 28.2471C86.5962 28.2471 88.0283 28.8384 88.9717 30.021ZM84.665 30.7183C83.8105 30.7183 83.1509 31.0225 82.686 31.6309C82.228 32.2324 81.999 33.0938 81.999 34.2148C81.999 35.3359 82.228 36.2007 82.686 36.8091C83.1509 37.4175 83.8105 37.7217 84.665 37.7217C85.5195 37.7217 86.1758 37.4175 86.6338 36.8091C87.0918 36.2007 87.3208 35.3359 87.3208 34.2148C87.3208 33.0938 87.0918 32.2324 86.6338 31.6309C86.1758 31.0225 85.5195 30.7183 84.665 30.7183ZM102.661 24.689V39.7827H99.8203V38.2344C99.4033 38.8975 98.9282 39.3794 98.395 39.6802C97.8618 39.981 97.1987 40.1313 96.4058 40.1313C95.1001 40.1313 93.9995 39.605 93.104 38.5522C92.2153 37.4927 91.771 36.1357 91.771 34.4814C91.771 32.5742 92.2085 31.0737 93.0835 29.98C93.9653 28.8862 95.1411 28.3394 96.6108 28.3394C97.2876 28.3394 97.8892 28.4897 98.4155 28.7905C98.9419 29.0845 99.3691 29.4946 99.6973 30.021V24.689H102.661ZM94.7856 34.2661C94.7856 35.2983 94.9907 36.1221 95.4009 36.7373C95.8042 37.3594 96.4194 37.6704 97.2466 37.6704C98.0737 37.6704 98.7026 37.3628 99.1333 36.7476C99.564 36.1323 99.7793 35.3359 99.7793 34.3584C99.7793 32.9912 99.4341 32.0137 98.7437 31.4258C98.3198 31.0703 97.8276 30.8926 97.2671 30.8926C96.4126 30.8926 95.7837 31.2173 95.3804 31.8667C94.9839 32.5093 94.7856 33.3091 94.7856 34.2661ZM112.494 38.2036C112.467 38.2378 112.398 38.3403 112.289 38.5112C112.18 38.6821 112.05 38.8325 111.899 38.9624C111.441 39.3726 110.997 39.6528 110.566 39.8032C110.143 39.9536 109.644 40.0288 109.069 40.0288C107.415 40.0288 106.301 39.4341 105.727 38.2446C105.405 37.5884 105.245 36.6211 105.245 35.3428V28.606H108.239V35.3428C108.239 35.9785 108.314 36.457 108.464 36.7783C108.731 37.3457 109.254 37.6294 110.033 37.6294C111.031 37.6294 111.715 37.2261 112.084 36.4194C112.275 35.9819 112.371 35.4043 112.371 34.6865V28.606H115.334V39.7827H112.494V38.2036ZM127.834 32.6152H124.84C124.785 32.1982 124.645 31.8223 124.419 31.4873C124.091 31.0361 123.582 30.8105 122.892 30.8105C121.907 30.8105 121.234 31.2993 120.872 32.2769C120.68 32.7964 120.584 33.4868 120.584 34.3481C120.584 35.1685 120.68 35.8281 120.872 36.3271C121.22 37.2568 121.876 37.7217 122.84 37.7217C123.524 37.7217 124.009 37.5371 124.296 37.168C124.583 36.7988 124.758 36.3203 124.819 35.7324H127.803C127.735 36.6211 127.414 37.4619 126.839 38.2549C125.923 39.5332 124.566 40.1724 122.769 40.1724C120.971 40.1724 119.648 39.6392 118.8 38.5728C117.953 37.5063 117.529 36.1221 117.529 34.4199C117.529 32.499 117.997 31.0054 118.934 29.939C119.87 28.8726 121.162 28.3394 122.81 28.3394C124.211 28.3394 125.356 28.6538 126.245 29.2827C127.14 29.9116 127.67 31.0225 127.834 32.6152ZM134.971 37.7012V39.8853L133.586 39.9365C132.206 39.9844 131.262 39.7451 130.756 39.2188C130.428 38.8838 130.264 38.3677 130.264 37.6704V30.79H128.706V28.7085H130.264V25.5913H133.156V28.7085H134.971V30.79H133.156V36.6963C133.156 37.1543 133.214 37.4414 133.33 37.5576C133.446 37.667 133.802 37.7217 134.396 37.7217C134.485 37.7217 134.578 37.7217 134.673 37.7217C134.776 37.7148 134.875 37.708 134.971 37.7012ZM151.941 39.7827V33.0356H146.035V39.7827H142.907V24.6685H146.035V30.4312H151.941V24.6685H155.079V39.7827H151.941ZM165.035 38.2036C165.008 38.2378 164.939 38.3403 164.83 38.5112C164.721 38.6821 164.591 38.8325 164.44 38.9624C163.982 39.3726 163.538 39.6528 163.107 39.8032C162.684 39.9536 162.185 40.0288 161.61 40.0288C159.956 40.0288 158.842 39.4341 158.268 38.2446C157.946 37.5884 157.786 36.6211 157.786 35.3428V28.606H160.78V35.3428C160.78 35.9785 160.855 36.457 161.005 36.7783C161.272 37.3457 161.795 37.6294 162.574 37.6294C163.572 37.6294 164.256 37.2261 164.625 36.4194C164.816 35.9819 164.912 35.4043 164.912 34.6865V28.606H167.875V39.7827H165.035V38.2036ZM175.966 30.7695C174.975 30.7695 174.294 31.1899 173.925 32.0308C173.734 32.4751 173.638 33.0425 173.638 33.7329V39.7827H170.726V28.6265H173.546V30.2568C173.922 29.6826 174.277 29.269 174.612 29.0161C175.214 28.5649 175.976 28.3394 176.899 28.3394C178.054 28.3394 178.998 28.6436 179.729 29.252C180.467 29.8535 180.836 30.855 180.836 32.2563V39.7827H177.842V32.9844C177.842 32.3965 177.764 31.9453 177.606 31.6309C177.319 31.0566 176.772 30.7695 175.966 30.7695ZM188.66 37.7012V39.8853L187.276 39.9365C185.895 39.9844 184.952 39.7451 184.446 39.2188C184.118 38.8838 183.954 38.3677 183.954 37.6704V30.79H182.395V28.7085H183.954V25.5913H186.845V28.7085H188.66V30.79H186.845V36.6963C186.845 37.1543 186.903 37.4414 187.02 37.5576C187.136 37.667 187.491 37.7217 188.086 37.7217C188.175 37.7217 188.267 37.7217 188.363 37.7217C188.465 37.7148 188.564 37.708 188.66 37.7012Z" fill="#030303"/>
<path fill-rule="evenodd" clip-rule="evenodd" d="M225.599 23.2827H214.597L220.098 13.2827L225.599 23.2827Z" fill="#030303"/>
<path d="M210.145 31.9512C209.929 31.693 209.62 31.564 209.218 31.564C208.668 31.564 208.293 31.7692 208.094 32.1797C207.98 32.4167 207.912 32.7933 207.891 33.3096H206.133C206.162 32.5267 206.304 31.894 206.558 31.4116C207.041 30.4933 207.897 30.0342 209.129 30.0342C210.102 30.0342 210.877 30.305 211.452 30.8467C212.028 31.3841 212.315 32.0972 212.315 32.9858C212.315 33.6672 212.112 34.2723 211.706 34.8013C211.439 35.1525 211.001 35.5439 210.392 35.9756L209.668 36.4897C209.216 36.8114 208.905 37.0441 208.735 37.188C208.57 37.3319 208.431 37.499 208.316 37.6895H212.334V39.2827H206.031C206.048 38.6226 206.19 38.0195 206.457 37.4736C206.715 36.86 207.324 36.2104 208.285 35.5249C209.118 34.9282 209.658 34.5008 209.903 34.2427C210.28 33.8407 210.468 33.4006 210.468 32.9224C210.468 32.533 210.36 32.2093 210.145 31.9512ZM216.327 34.7124C216.107 34.7124 215.917 34.7399 215.756 34.7949C215.472 34.8965 215.259 35.0848 215.115 35.3599L213.49 35.2837L214.137 30.1992H219.209V31.7354H215.445L215.115 33.7476C215.394 33.5656 215.612 33.445 215.769 33.3857C216.031 33.2884 216.35 33.2397 216.727 33.2397C217.489 33.2397 218.153 33.4958 218.72 34.0078C219.287 34.5199 219.571 35.2646 219.571 36.2422C219.571 37.0928 219.298 37.8524 218.752 38.521C218.206 39.1896 217.389 39.5239 216.302 39.5239C215.426 39.5239 214.706 39.2891 214.144 38.8193C213.581 38.3496 213.268 37.6831 213.204 36.8198H215.007C215.079 37.2134 215.216 37.5181 215.419 37.7339C215.623 37.9455 215.919 38.0513 216.308 38.0513C216.757 38.0513 217.097 37.8947 217.33 37.5815C217.567 37.2642 217.686 36.8664 217.686 36.3882C217.686 35.9185 217.576 35.5228 217.355 35.2012C217.135 34.8753 216.793 34.7124 216.327 34.7124ZM226.896 35.8867V37.3022H225.855V39.2827H224.084V37.3022H220.44V35.7217L223.824 30.1357H225.855V35.8867H226.896ZM221.78 35.8867H224.084V31.9131L221.78 35.8867ZM230.711 39.5493C230.021 39.5493 229.401 39.3462 228.851 38.9399C228.301 38.5295 227.986 37.9328 227.905 37.1499H229.708C229.75 37.4207 229.865 37.6408 230.051 37.8101C230.237 37.9793 230.485 38.064 230.793 38.064C231.39 38.064 231.809 37.7339 232.05 37.0737C232.181 36.7098 232.264 36.1787 232.298 35.4805C232.133 35.6878 231.957 35.8465 231.771 35.9565C231.432 36.1597 231.016 36.2612 230.521 36.2612C229.788 36.2612 229.139 36.0094 228.572 35.5059C228.005 34.998 227.721 34.2681 227.721 33.3159C227.721 32.3299 228.005 31.5322 228.572 30.9229C229.143 30.3092 229.884 30.0024 230.793 30.0024C232.194 30.0024 233.155 30.6224 233.675 31.8623C233.972 32.5648 234.12 33.4894 234.12 34.6362C234.12 35.7492 233.978 36.6781 233.694 37.4229C233.153 38.8405 232.158 39.5493 230.711 39.5493ZM230.076 31.7734C229.729 32.0443 229.556 32.5034 229.556 33.1509C229.556 33.6968 229.666 34.1073 229.886 34.3823C230.11 34.6532 230.453 34.7886 230.914 34.7886C231.164 34.7886 231.399 34.7166 231.619 34.5728C232.029 34.3104 232.234 33.8555 232.234 33.208C232.234 32.6875 232.112 32.2749 231.866 31.9702C231.625 31.6655 231.293 31.5132 230.87 31.5132C230.561 31.5132 230.296 31.5999 230.076 31.7734Z" fill="#030303"/>
<path d="M27.5348 17.8267C25.5351 17.7397 23.2964 19.167 22.427 19.8915C22.427 19.2395 20.1447 15.4358 18.9492 15.4358C17.7538 15.4358 15.4717 25.5427 15.4717 30.2158C15.4717 34.8889 19.7101 39.0186 27.5348 39.1273C35.3595 39.2359 39.0545 35.5409 39.1631 30.2158C39.2718 24.8906 36.7723 15.4358 35.5768 15.4358C34.6205 15.4358 32.715 18.4063 31.8818 19.8915C31.266 19.2395 29.5344 17.9136 27.5348 17.8267Z" stroke="black"/>
<path d="M26.2635 35.0336H23.2969C23.3797 34.4265 23.4073 33.8056 23.4073 32.9915V25.5266C23.4073 24.7815 23.3797 24.1606 23.2969 23.5121C23.9454 23.5397 24.4421 23.5535 25.3252 23.5535H28.347C31.0791 23.5535 32.5831 24.8643 32.5831 27.2652C32.5831 29.7213 31.0101 31.1839 28.3332 31.1839H26.1531V32.9501C26.1531 33.7642 26.1945 34.4403 26.2635 35.0336ZM26.1531 28.8382H28.2091C29.1749 28.8382 29.7407 28.3001 29.7407 27.348C29.7407 26.3959 29.2025 25.8992 28.2091 25.8992H26.1531V28.8382Z" fill="black"/>
</svg>
